<?xml version="1.0" encoding="UTF-8"?>
<svg width="84px" height="84px" viewBox="0 0 84 84" version="1.1" xmlns="http://www.w3.org/2000/svg" xmlns:xlink="http://www.w3.org/1999/xlink">
    <!-- Generator: Sketch 52.6 (67491) - http://www.bohemiancoding.com/sketch -->
    <title>Facebook</title>
    <desc>Created with Sketch.</desc>
    <g id="Page-1" stroke="none" stroke-width="1" fill="none" fill-rule="evenodd">
        <g id="free_icon_1" fill="#878787">
            <g id="Facebook">
                <path d="M50.19,35.641 L49.758,41.39 L44.153,41.39 L44.153,60.647 L36.776,60.647 L36.776,41.39 L33.041,41.39 L33.041,35.641 L36.776,35.641 L36.776,31.33 L36.776,30.085 C36.776,30.085 36.512,23.721 44.153,23.377 C47.866,23.211 50.959,24.048 50.959,24.048 L50.174,29.7 C50.174,29.7 44.153,27.834 44.153,31.471 L44.153,35.64 L50.19,35.64 L50.19,35.641 Z" id="id_253"></path>
                <path d="M41.999,83.775 C18.966,83.775 0.225,65.034 0.225,41.999 C0.225,18.964 18.966,0.225 41.999,0.225 C65.034,0.225 83.775,18.964 83.775,41.999 C83.775,65.034 65.034,83.775 41.999,83.775 Z M41.999,5.964 C22.129,5.964 5.964,22.129 5.964,41.999 C5.964,61.869 22.129,78.035 41.999,78.035 C61.871,78.035 78.035,61.869 78.035,41.999 C78.035,22.129 61.871,5.964 41.999,5.964 Z" id="id_254" fill-rule="nonzero"></path>
            </g>
        </g>
    </g>
</svg>