<?xml version="1.0" encoding="UTF-8"?>
<svg width="84px" height="84px" viewBox="0 0 84 84" version="1.1" xmlns="http://www.w3.org/2000/svg" xmlns:xlink="http://www.w3.org/1999/xlink">
    <!-- Generator: Sketch 52.6 (67491) - http://www.bohemiancoding.com/sketch -->
    <title>instagram-logo</title>
    <desc>Created with Sketch.</desc>
    <g id="Page-1" stroke="none" stroke-width="1" fill="none" fill-rule="evenodd">
        <g id="instagram-logo" fill="#000000" fill-rule="nonzero">
            <path d="M60.143,29.455 C59.655,28.198 58.998,27.129 57.936,26.064 C56.87,25.001 55.803,24.344 54.543,23.855 C53.324,23.384 51.932,23.059 49.895,22.967 C47.854,22.872 47.2,22.852 42,22.852 C36.8,22.852 36.145,22.873 34.104,22.967 C32.067,23.059 30.676,23.384 29.458,23.855 C28.196,24.344 27.13,25.001 26.063,26.064 C25,27.128 24.346,28.198 23.858,29.455 C23.385,30.674 23.059,32.067 22.967,34.104 C22.873,36.146 22.85,36.798 22.85,41.999 C22.85,47.2 22.873,47.852 22.967,49.894 C23.059,51.934 23.385,53.325 23.858,54.542 C24.346,55.802 25.001,56.871 26.063,57.934 C27.129,58.999 28.196,59.655 29.458,60.145 C30.677,60.616 32.067,60.941 34.104,61.035 C36.145,61.126 36.801,61.15 42,61.15 C47.199,61.15 47.854,61.126 49.895,61.035 C51.932,60.941 53.325,60.616 54.543,60.145 C55.803,59.655 56.869,58.999 57.936,57.934 C58.999,56.871 59.655,55.802 60.143,54.542 C60.62,53.324 60.938,51.934 61.032,49.894 C61.128,47.852 61.149,47.2 61.149,41.999 C61.149,36.798 61.128,36.146 61.032,34.104 C60.938,32.067 60.619,30.674 60.143,29.455 Z M57.588,49.738 C57.502,51.603 57.19,52.618 56.926,53.294 C56.58,54.188 56.166,54.824 55.494,55.493 C54.822,56.164 54.187,56.579 53.293,56.929 C52.615,57.191 51.605,57.5 49.738,57.586 C47.718,57.68 47.113,57.698 42,57.698 C36.885,57.698 36.279,57.679 34.262,57.586 C32.393,57.5 31.383,57.19 30.705,56.929 C29.812,56.579 29.176,56.164 28.506,55.493 C27.836,54.824 27.42,54.187 27.072,53.294 C26.812,52.618 26.5,51.604 26.412,49.738 C26.32,47.717 26.303,47.113 26.303,41.999 C26.303,36.887 26.321,36.281 26.412,34.264 C26.5,32.397 26.812,31.382 27.072,30.707 C27.42,29.814 27.834,29.174 28.506,28.506 C29.176,27.836 29.813,27.419 30.705,27.073 C31.383,26.809 32.393,26.498 34.262,26.413 C36.282,26.322 36.885,26.302 42,26.302 C47.113,26.302 47.719,26.323 49.738,26.413 C51.605,26.498 52.615,26.809 53.293,27.073 C54.188,27.419 54.822,27.836 55.494,28.506 C56.166,29.174 56.58,29.815 56.926,30.707 C57.19,31.382 57.502,32.396 57.588,34.264 C57.678,36.282 57.697,36.887 57.697,41.999 C57.697,47.113 57.678,47.717 57.588,49.738 Z M42,32.169 C36.566,32.169 32.166,36.567 32.166,41.999 C32.166,47.431 36.566,51.833 42,51.833 C47.432,51.833 51.832,47.431 51.832,41.999 C51.832,36.567 47.432,32.169 42,32.169 Z M42,48.384 C38.473,48.384 35.617,45.525 35.617,41.999 C35.617,38.475 38.472,35.616 42,35.616 C45.525,35.616 48.381,38.474 48.381,41.999 C48.381,45.524 45.525,48.384 42,48.384 Z M54.52,31.78 C54.52,33.047 53.491,34.078 52.221,34.078 C50.951,34.078 49.924,33.047 49.924,31.78 C49.924,30.509 50.951,29.479 52.221,29.479 C53.491,29.479 54.52,30.51 54.52,31.78 Z M41.998,0.225 C18.963,0.225 0.225,18.964 0.225,41.999 C0.225,65.034 18.963,83.775 41.998,83.775 C65.035,83.775 83.775,65.034 83.775,41.999 C83.775,18.964 65.035,0.225 41.998,0.225 Z M41.998,78.035 C22.129,78.035 5.965,61.869 5.965,41.999 C5.965,22.129 22.129,5.964 41.998,5.964 C61.869,5.964 78.035,22.129 78.035,41.999 C78.035,61.869 61.869,78.035 41.998,78.035 Z" id="id_258"></path>
        </g>
    </g>
</svg>