<?xml version="1.0" encoding="UTF-8"?>
<svg width="84px" height="84px" viewBox="0 0 84 84" version="1.1" xmlns="http://www.w3.org/2000/svg" xmlns:xlink="http://www.w3.org/1999/xlink">
    <!-- Generator: Sketch 52.6 (67491) - http://www.bohemiancoding.com/sketch -->
    <title>linkedin-logo</title>
    <desc>Created with Sketch.</desc>
    <g id="Page-1" stroke="none" stroke-width="1" fill="none" fill-rule="evenodd">
        <g id="linkedin-logo" fill="#000000">
            <path d="M41.999,0.225 C18.964,0.225 0.225,18.965 0.225,41.999 C0.225,65.034 18.964,83.776 41.999,83.776 C65.034,83.776 83.776,65.034 83.776,41.999 C83.776,18.965 65.034,0.225 41.999,0.225 Z M41.999,78.036 C22.129,78.036 5.965,61.87 5.965,41.999 C5.965,22.129 22.129,5.965 41.999,5.965 C61.87,5.965 78.036,22.129 78.036,41.999 C78.036,61.87 61.87,78.036 41.999,78.036 Z" id="id_265" fill-rule="nonzero"></path>
            <rect id="id_266" x="26.595" y="35.853" width="6.749" height="21.711"></rect>
            <path d="M30.013,26.438 C27.834,26.438 26.417,27.904 26.417,29.812 C26.417,31.678 27.793,33.187 29.925,33.187 C32.188,33.187 33.565,31.678 33.565,29.812 C33.52,27.903 32.188,26.438 30.013,26.438 Z" id="id_267"></path>
            <path d="M49.81,35.362 C46.174,35.362 43.998,37.449 43.108,38.867 L42.973,38.867 L42.662,35.852 L36.805,35.852 C36.891,37.803 36.981,40.07 36.981,42.778 L36.981,57.563 L43.73,57.563 L43.73,45.042 C43.73,44.421 43.773,43.799 43.953,43.354 C44.44,42.112 45.55,40.824 47.415,40.824 C49.857,40.824 50.836,42.734 50.836,45.532 L50.836,57.563 L57.584,57.563 L57.584,44.733 C57.583,38.338 54.255,35.362 49.81,35.362 Z" id="id_268"></path>
        </g>
    </g>
</svg>