<?xml version="1.0" encoding="UTF-8"?>
<svg width="84px" height="84px" viewBox="0 0 84 84" version="1.1" xmlns="http://www.w3.org/2000/svg" xmlns:xlink="http://www.w3.org/1999/xlink">
    <!-- Generator: Sketch 52.6 (67491) - http://www.bohemiancoding.com/sketch -->
    <title>twitter-logo</title>
    <desc>Created with Sketch.</desc>
    <g id="Page-1" stroke="none" stroke-width="1" fill="none" fill-rule="evenodd">
        <g id="twitter-logo" fill="#1B1B1B">
            <path d="M59.55,28.624 C58.141,29.457 56.584,30.064 54.925,30.392 C53.596,28.978 51.701,28.092 49.611,28.092 C45.589,28.092 42.33,31.351 42.33,35.373 C42.33,35.943 42.393,36.5 42.517,37.03 C36.467,36.729 31.102,33.83 27.509,29.424 C26.881,30.5 26.523,31.752 26.523,33.086 C26.523,35.61 27.808,37.84 29.764,39.146 C28.569,39.109 27.448,38.78 26.466,38.234 C26.464,38.264 26.464,38.297 26.464,38.328 C26.464,41.854 28.972,44.799 32.307,45.466 C31.693,45.634 31.052,45.724 30.387,45.724 C29.919,45.724 29.463,45.677 29.019,45.593 C29.946,48.484 32.632,50.59 35.819,50.648 C33.328,52.602 30.189,53.766 26.775,53.766 C26.188,53.766 25.609,53.733 25.039,53.663 C28.261,55.728 32.09,56.935 36.202,56.935 C49.596,56.935 56.919,45.839 56.919,36.218 C56.919,35.903 56.911,35.588 56.898,35.275 C58.32,34.249 59.554,32.967 60.53,31.507 C59.224,32.085 57.821,32.475 56.348,32.651 C57.851,31.752 59.006,30.322 59.55,28.624 Z" id="id_251"></path>
            <path d="M42,0.225 C18.965,0.225 0.224,18.964 0.224,41.999 C0.224,65.034 18.965,83.775 42,83.775 C65.035,83.775 83.776,65.034 83.776,41.999 C83.776,18.964 65.035,0.225 42,0.225 Z M42,78.035 C22.13,78.035 5.964,61.869 5.964,41.999 C5.964,22.129 22.13,5.964 42,5.964 C61.87,5.964 78.036,22.129 78.036,41.999 C78.036,61.869 61.87,78.035 42,78.035 Z" id="id_252" fill-rule="nonzero"></path>
        </g>
    </g>
</svg>