<?xml version="1.0" encoding="UTF-8"?>
<svg width="282px" height="47px" viewBox="0 0 282 47" version="1.1" xmlns="http://www.w3.org/2000/svg" xmlns:xlink="http://www.w3.org/1999/xlink">
    <!-- Generator: Sketch 52.6 (67491) - http://www.bohemiancoding.com/sketch -->
    <title>constructive-thinking-logo</title>
    <desc>Created with Sketch.</desc>
    <g id="Page-1" stroke="none" stroke-width="1" fill="none" fill-rule="evenodd">
        <g id="constructive-thinking-logo">
            <path d="M58.8839934,4.24837133 C58.8839934,4.70918567 58.8839934,4.9571987 58.8839934,5.20521172 C58.8839934,12.5721172 58.8839934,19.9374919 58.8839934,27.3043974 C58.8839934,28.2857329 58.6200979,28.7235831 58.0309358,28.7235831 C57.4003482,28.7235831 57.1226442,28.284202 57.1211099,27.2722475 C57.1211099,19.0204561 57.1211099,10.7686645 57.1211099,2.51534202 C57.1211099,2.35153094 57.1149728,2.18925081 57.1241785,2.02543974 C57.1502612,1.55697068 57.1533297,1.06247557 57.7256148,0.89407166 C58.2534058,0.737915309 58.6001524,1.00429967 58.914679,1.40693811 C62.2640043,5.6843974 65.6210011,9.95573287 68.9764636,14.2285993 C72.2460066,18.3927688 75.5078781,22.5615309 78.7958324,26.7103909 C78.976877,26.9400325 79.3619804,27.1298697 79.6550272,27.1329316 C83.1639173,27.1635505 86.672807,27.1727361 90.1801633,27.1436482 C90.8705877,27.1375244 91.5778887,27.0104561 92.2452995,26.8252117 C94.2720785,26.2618241 95.1542874,24.7385342 95.3660176,22.7957655 C95.5378567,21.2158306 95.4381281,19.6328338 94.825952,18.1294462 C94.0603483,16.2494462 92.4462899,15.1670684 90.4103051,15.1640065 C87.7912946,15.1594137 85.1661481,15.2711727 82.5532753,15.1272639 C79.9511425,14.9833551 77.7203046,13.9913029 76.6309685,11.3932899 C74.8297279,7.09745928 77.749456,1.75905538 82.3400109,0.903257331 C82.6131121,0.852736156 82.9000218,0.857328991 83.17926,0.855798047 C86.7111641,0.852736156 90.2430689,0.860390879 93.7749728,0.848143322 C94.3687374,0.846612378 94.8796517,0.923159609 94.953297,1.62892509 C95.0131337,2.21068404 94.5405764,2.5628013 93.7442874,2.56433225 C90.3765509,2.56739413 87.0072794,2.56586319 83.639543,2.56586319 C80.8763112,2.56586319 78.3877149,4.70612378 78.0133515,7.43732899 C77.9258977,8.07879478 77.8369097,8.74628666 77.9228291,9.3785668 C78.2342873,11.6749837 79.5905876,12.993127 81.9549075,13.325342 C82.7818825,13.4416938 83.628803,13.4570033 84.4665179,13.464658 C86.4073779,13.4845603 88.3513058,13.5136482 90.2906309,13.4600652 C93.2088247,13.3804561 95.6943523,15.067557 96.6179872,17.9901303 C97.2777262,20.0752769 97.3605764,22.201759 96.8097718,24.3190554 C96.1730464,26.7746906 94.2091729,28.4740391 91.6837542,28.7098046 C90.1985749,28.8475896 88.698052,28.8460587 87.2036669,28.8583062 C84.6076714,28.8797394 82.0101415,28.8338111 79.4141458,28.8812704 C78.5426769,28.8981107 77.9949402,28.6807166 77.4594777,27.9167753 C76.2029054,26.1255701 74.7867682,24.4430619 73.4335364,22.7192182 C68.7693363,16.7760912 64.1036018,10.8329642 59.4378673,4.89136808 C59.3089881,4.72755701 59.1678346,4.57599348 58.8839934,4.24530945 L58.8839934,4.24837133 Z" id="Path" fill="#000000"></path>
            <path d="M255.989412,15.8253746 C256.122894,17.5660587 256.567834,19.1306841 257.371795,20.5896743 C259.309587,24.1062541 262.284548,26.293974 266.244516,26.8481759 C271.217106,27.5432247 275.198552,25.6815961 278.127487,21.6108143 C278.222612,21.4791531 278.30086,21.3337133 278.392916,21.1989902 C278.699772,20.7488925 279.114026,20.5758958 279.592721,20.8744299 C280.094428,21.1867426 280.194157,21.6904234 279.828999,22.1374593 C278.888488,23.2871987 278.033896,24.5624756 276.9016,25.4932899 C268.766866,32.1743322 256.721263,27.9642345 254.498096,17.7130293 C252.864091,10.1792509 258.143536,2.50462541 265.771958,1.32120522 C273.276104,0.157687296 280.178814,4.94801303 281.639445,12.3623779 C281.800544,13.1783714 281.789804,14.0265146 281.851175,14.8608795 C281.894135,15.4411075 281.564266,15.7197394 281.033406,15.7947557 C280.780251,15.8314984 280.520958,15.8207818 280.263199,15.8207818 C272.426115,15.8223127 264.587497,15.8238436 256.750413,15.8238436 C256.521806,15.8238436 256.293199,15.8238436 255.987878,15.8238436 L255.989412,15.8253746 Z M280.105169,14.0295766 C279.618803,7.35925081 273.52926,2.01778502 266.259858,2.97309446 C260.948194,3.67120522 255.403319,9.58677527 256.087606,14.0295766 L280.106703,14.0295766 L280.105169,14.0295766 Z" id="Shape" fill="#000000" fill-rule="nonzero"></path>
            <path d="M120.147649,2.48013029 C120.147649,2.86592834 120.147649,3.09557003 120.147649,3.32368078 C120.147649,11.3657329 120.147649,19.407785 120.144581,27.4498371 C120.144581,28.4663844 119.919042,28.8475896 119.313003,28.862899 C118.680882,28.8797394 118.430794,28.4709772 118.430794,27.4192182 C118.430794,18.9806515 118.430794,10.5420847 118.430794,2.10504886 C118.430794,1.08084691 118.616442,0.868045606 119.636736,0.855798047 C123.446343,0.809869707 127.262089,0.649120522 131.067094,0.779250814 C135.042405,0.915504882 138.680174,3.77530945 139.760305,8.00224756 C141.023014,12.9395439 138.492992,17.5951465 133.658488,19.3358306 C133.4621,19.4062541 133.262645,19.4720847 132.960391,19.5761889 C133.396127,20.0768078 133.79197,20.5452769 134.203155,20.9999675 C136.096452,23.0942997 137.991284,25.1886319 139.890718,27.2768404 C140.226725,27.645798 140.370946,28.0805863 140.059488,28.4617915 C139.87691,28.6837785 139.459587,28.8338111 139.163471,28.8108469 C138.913384,28.7924756 138.654091,28.5092509 138.454636,28.2903257 C137.038498,26.7394788 135.639239,25.1748535 134.230773,23.6178828 C133.463634,22.7697394 132.575288,22.0027361 131.953906,21.0612052 C131.211316,19.9344299 130.224777,19.9589251 129.147715,20.1181433 C127.993939,20.2896091 126.913809,20.0844626 125.902721,19.5516938 C124.656888,18.8964495 124.153645,17.7114984 124.586311,16.5923779 C125.078814,15.3201629 126.642242,14.3985342 127.857388,14.8333225 C128.569293,15.0874593 129.213689,15.6095114 129.795179,16.1162541 C130.353657,16.6015635 130.774048,17.2430293 131.297236,17.7727361 C131.459869,17.9365472 131.800479,18.0896417 131.996866,18.0345277 C135.059282,17.1542345 137.348422,15.454886 138.141643,12.190912 C139.207966,7.8047557 136.090315,3.08485342 131.591817,2.60107491 C129.120098,2.3362215 126.599282,2.50309446 124.10148,2.48319218 C122.818825,2.47247557 121.534636,2.48166124 120.144581,2.48166124 L120.147649,2.48013029 Z M129.403939,18.302443 C129.143112,18.0008469 128.951327,17.7390554 128.718118,17.5216613 C128.349891,17.1771987 127.99087,16.7990554 127.559739,16.5525733 C127.156224,16.3214007 126.399826,16.7087296 126.235658,17.1664821 C126.034668,17.722215 126.488814,17.9304234 126.855506,18.0881107 C127.634918,18.4249186 128.451154,18.6116938 129.405473,18.302443 L129.403939,18.302443 Z" id="Shape" fill="#000000" fill-rule="nonzero"></path>
            <path d="M41.3103918,1.16045603 C48.955691,1.16198697 55.1265506,7.30107491 55.1280849,14.9037459 C55.1280849,22.5263192 48.944951,28.7358306 41.3656257,28.7266449 C33.6083243,28.7159283 27.462013,22.5661238 27.4681502,14.8210749 C27.4742873,7.2934202 33.6911752,1.15892509 41.3103918,1.16045603 Z M53.4296409,14.9757003 C53.3437215,8.37732899 48.2668009,3.01136808 41.4653536,2.86286645 C34.8648966,2.71895766 29.2724592,8.17065146 29.1819369,14.7200325 C29.0898803,21.3582085 34.4936018,26.9308469 41.1017301,27.0135179 C47.8172579,27.0977199 53.3544614,21.6904234 53.4296409,14.9757003 Z" id="Shape" fill="#000000" fill-rule="nonzero"></path>
            <path d="M173.798227,14.3847557 C173.865734,20.7488925 178.597443,26.1561889 184.906388,26.8680782 C188.909315,27.3197068 192.425876,26.1286319 195.336398,23.2948535 C195.469881,23.1647231 195.597225,23.0269381 195.733776,22.8998697 C196.187922,22.477329 196.741795,22.4329316 197.102351,22.7850488 C197.461371,23.1371662 197.444494,23.7158632 197.024102,24.1613681 C194.779456,26.5496417 192.033101,28.0714007 188.795778,28.559772 C184.245115,29.2471662 180.173145,28.1004886 176.740969,24.9972639 C174.158781,22.6641042 172.62297,19.7507166 172.181099,16.2861889 C171.286616,9.26986973 175.419957,2.69752443 182.118607,0.69504886 C187.379641,-0.877231269 192.115952,0.238827361 196.258498,3.83501629 C196.416529,3.9728013 196.649739,4.11977199 196.677355,4.28970684 C196.740261,4.66325733 196.823112,5.1256026 196.660479,5.42260587 C196.4242,5.8528013 195.931697,5.87729642 195.494428,5.60172639 C195.339467,5.50374593 195.215191,5.35677525 195.075572,5.23276873 C191.437802,1.9795114 187.232351,0.975211725 182.595767,2.45104234 C177.945376,3.9314658 175.156061,7.24136808 174.071327,11.9643322 C173.890283,12.7512378 173.88568,13.5779478 173.798227,14.3862867 L173.798227,14.3847557 Z" id="Path" fill="#000000"></path>
            <path d="M14.3761697,27.0073941 C17.9817193,26.9293159 21.0195865,25.6065798 23.5235255,23.056026 C23.9393145,22.6319544 24.3566376,22.3517915 24.9273885,22.697785 C25.4459739,23.0116286 25.4505767,23.6362541 24.9350598,24.1904561 C23.043297,26.2220195 20.755691,27.6534528 18.0568988,28.2796091 C12.2496627,29.6237785 7.26019587,28.0943649 3.35085963,23.5964495 C0.762535364,20.6187622 -0.262361263,17.0547231 0.0567682263,13.1018241 C0.546202394,7.01019544 5.11681175,1.41 11.8752992,0.248013029 C16.6576388,-0.574104234 20.8861045,0.739446254 24.4394885,4.07996743 C24.9120457,4.52394137 24.9642111,5.12866449 24.5975191,5.49149837 C24.1817301,5.90332247 23.7214472,5.87270358 23.1875191,5.3690228 C20.3383678,2.68527688 16.9491512,1.56462541 13.0597606,1.87081433 C7.91072906,2.27804561 3.12685528,6.54938111 2.06973885,11.6857003 C0.64132753,18.6315961 4.8605876,25.1396417 11.8169967,26.678241 C12.6531773,26.8634854 13.5215778,26.901759 14.3761697,27.0073941 Z" id="Path" fill="#000000"></path>
            <path d="M168.972927,9.31426713 C168.972927,11.5295439 168.974461,13.7448208 168.972927,15.9585668 C168.96679,22.0211075 164.49284,27.3625733 158.499957,28.4617915 C151.743003,29.7018567 145.39877,25.85 143.526954,19.3189902 C143.229303,18.2794788 143.034451,17.1741368 143.020642,16.0963518 C142.966942,11.3871662 142.996094,6.67644951 142.999163,1.96726384 C142.999163,1.16811075 143.293743,0.823648208 143.921263,0.855798047 C144.380011,0.878762213 144.668455,1.09615635 144.700675,1.57687296 C144.712949,1.76211727 144.709881,1.95042345 144.709881,2.13566775 C144.709881,6.65807818 144.659249,11.1835505 144.728291,15.7044299 C144.789663,19.7859283 146.555615,23.0192834 150.012339,25.2437459 C155.466692,28.7557329 162.881849,26.7838762 165.925854,21.0596743 C166.828009,19.3618567 167.280621,17.5599348 167.277552,15.6370684 C167.272949,11.0901629 167.277552,6.54478828 167.272949,1.99788273 C167.272949,1.53247557 167.292894,1.06247557 167.813014,0.904788275 C168.520315,0.690456026 169.003612,1.10228013 168.989804,1.82641694 C168.942242,4.32032574 168.971393,6.81576548 168.971393,9.30967429 L168.972927,9.31426713 Z" id="Path" fill="#000000"></path>
            <path d="M240.634375,24.5180782 C241.676148,22.3257655 242.670359,20.2268404 243.669173,18.1294462 C246.240621,12.7313355 248.808999,7.33169381 251.395789,1.94123779 C251.535408,1.64882736 251.788564,1.31661238 252.067802,1.21250814 C252.305615,1.12371335 252.791981,1.24771987 252.923928,1.44368078 C253.092699,1.6947557 253.15407,2.17087948 253.028259,2.44338762 C251.653548,5.42260587 250.235876,8.38192182 248.82741,11.3442997 C246.398651,16.4515309 243.974494,21.5602932 241.516583,26.652215 C241.360087,26.9767753 240.933558,27.3748208 240.63284,27.3748208 C240.329054,27.3748208 239.902524,26.9813681 239.741425,26.6568078 C236.924494,20.9632247 234.139782,15.2528013 231.348934,9.54697071 C230.162938,7.12195439 228.964668,4.70306189 227.815495,2.26120522 C227.671273,1.95501629 227.694287,1.47429967 227.838509,1.1665798 C227.925963,0.979804556 228.435343,0.83742671 228.680827,0.912442994 C228.958531,0.998175899 229.234701,1.31201954 229.37432,1.59371335 C230.977639,4.82400652 232.55334,8.06654723 234.136714,11.306026 C236.232536,15.59114 238.328357,19.8747231 240.425713,24.1598371 C240.465604,24.2409772 240.517769,24.3175244 240.637443,24.52114 L240.634375,24.5180782 Z" id="Path" fill="#000000"></path>
            <path d="M214.2126,1.8662215 C213.85358,1.8662215 213.600424,1.8662215 213.347269,1.8662215 C209.324396,1.8662215 205.301524,1.8662215 201.280185,1.8662215 C200.526855,1.8662215 200.170903,1.51869707 200.2737,0.880293157 C200.365757,0.30465798 200.769271,0.180651465 201.293994,0.18218241 C205.013079,0.191368078 208.730631,0.186775244 212.449717,0.186775244 C213.267487,0.186775244 214.088324,0.214332247 214.90456,0.179120522 C215.599587,0.150032574 215.872688,0.520521172 215.950936,1.12830619 C215.966279,1.24312704 215.950936,1.36100977 215.950936,1.47736156 C215.950936,9.84397396 215.950936,18.2121172 215.947867,26.5787296 C215.947867,26.8558306 215.989293,27.1911075 215.854276,27.3931922 C215.674766,27.6595766 215.33876,27.9795439 215.068727,27.9795439 C214.801763,27.9795439 214.474962,27.6534528 214.28778,27.3901303 C214.16197,27.2125407 214.215669,26.8956351 214.215669,26.6414984 C214.2126,18.6943649 214.2126,10.7472312 214.2126,2.79856678 C214.2126,2.5214658 214.2126,2.24436482 214.2126,1.86469055 L214.2126,1.8662215 Z" id="Path" fill="#000000"></path>
            <path d="M111.664636,2.56586319 C111.327094,2.56586319 111.077008,2.56586319 110.825386,2.56586319 C106.874624,2.56586319 102.922328,2.56892509 98.9715668,2.56127036 C98.698466,2.56127036 98.3425132,2.58117264 98.172209,2.42807818 C97.9297934,2.21221498 97.6612946,1.81723127 97.7073235,1.55084691 C97.7518175,1.28752443 98.1584003,1.06553746 98.4407069,0.875700325 C98.5542434,0.799153094 98.7598367,0.855798047 98.924004,0.855798047 C103.342721,0.855798047 107.761436,0.855798047 112.181687,0.855798047 C113.139075,0.855798047 113.379957,1.09615635 113.379957,2.04993485 C113.381491,10.5313681 113.381491,19.0128013 113.375354,27.4942345 C113.375354,27.7422475 113.379957,28.0637459 113.237269,28.2199023 C113.028607,28.448013 112.654243,28.7266449 112.414897,28.6761238 C112.13259,28.6164169 111.8779,28.2566449 111.690718,27.9749512 C111.592524,27.8279805 111.664636,27.5661889 111.664636,27.3564495 C111.664636,19.4108469 111.664636,11.4652443 111.664636,3.51964169 C111.664636,3.22263844 111.664636,2.92563518 111.664636,2.56433225 L111.664636,2.56586319 Z" id="Path" fill="#000000"></path>
            <path d="M221.041665,14.0341694 C221.041665,9.77048861 221.044733,5.50527688 221.037062,1.24159609 C221.037062,0.690456026 221.170544,0.254136808 221.79346,0.191368078 C222.342731,0.136254072 222.687943,0.38732899 222.732437,0.966026062 C222.743178,1.10534202 222.73704,1.24618893 222.73704,1.38550488 C222.73704,9.8914332 222.73704,18.3958306 222.735506,26.901759 C222.735506,27.1099675 222.795343,27.4100325 222.684875,27.5095439 C222.433254,27.7345928 222.088042,27.9994462 221.791926,27.9871987 C221.53877,27.9764821 221.257998,27.6320195 221.073885,27.3748208 C220.972622,27.233974 221.043199,26.9675896 221.043199,26.7593811 C221.043199,22.5186645 221.043199,18.2779478 221.043199,14.0357003 L221.041665,14.0341694 Z" id="Path" fill="#000000"></path>
            <path d="M262.962699,46.5866449 C262.378139,46.7856678 262.045201,46.5942997 261.749086,46.1334854 C260.306866,43.9013681 258.838564,41.6876221 257.376398,39.4692834 C257.126311,39.0896091 256.862416,38.7175896 256.449695,38.3823127 C256.435887,38.624202 256.409804,38.8645603 256.409804,39.1064495 C256.40827,41.4135831 256.400598,43.7222475 256.417476,46.0293811 C256.422078,46.6050163 256.227225,46.8009772 255.641131,46.5820522 L255.641131,36.9462867 C256.237966,36.7396091 256.589315,36.9233225 256.922252,37.4407818 C258.471872,39.8535505 260.064451,42.2372312 261.643221,44.6300977 C261.767497,44.8184039 261.907116,44.9944626 262.172546,45.3588273 L262.172546,36.9126059 C262.479402,36.8957655 262.697269,36.8835179 262.964233,36.8682085 L262.964233,46.5866449 L262.962699,46.5866449 Z" id="Path" fill="#47AE4C"></path>
            <path d="M278.679826,39.7295439 C278.461958,39.5442997 278.152034,39.4034528 278.038498,39.1676873 C277.311251,37.6443974 276.020925,37.2938111 274.488183,37.3688273 C273.254624,37.4285342 272.14074,38.2475896 271.698869,39.4738762 C271.168009,40.9481759 271.151131,42.4316613 271.657443,43.9166775 C272.266551,45.700228 273.836115,46.5881759 275.687987,46.2054397 C277.407911,45.8502606 278.452753,44.3851465 278.293188,42.411759 C277.407911,42.411759 276.508825,42.3964495 275.609739,42.4178828 C275.149456,42.4301303 275.01444,42.2586645 275.174004,41.7917264 L279.129369,41.7917264 C279.129369,43.3058306 279.141643,44.7908469 279.110958,46.2743322 C279.107889,46.4304886 278.839391,46.5805212 278.564755,46.8668078 C278.486507,46.1304234 278.434342,45.6527688 278.368367,45.0312052 C278.047704,45.4047557 277.843645,45.6971662 277.585887,45.9359935 C275.799989,47.5924756 272.740642,47.2112704 271.390479,45.175114 C270.081741,43.2001954 270.179934,39.9132574 271.603743,38.1266449 C273.090457,36.2604234 276.499619,36.0950814 278.106006,37.8602606 C278.506452,38.2996417 278.722785,38.9074267 279.023504,39.4371335 C278.909967,39.5335831 278.794897,39.6315635 278.68136,39.728013 L278.679826,39.7295439 Z" id="Path" fill="#47AE4C"></path>
            <path d="M224.555158,46.5698046 C223.947584,46.751987 223.629989,46.5897068 223.3216,46.1105212 C221.775049,43.7008143 220.180936,41.3186645 218.602166,38.92886 C218.465615,38.7221824 218.313721,38.5262215 218.043689,38.1496091 C218.014537,38.5966449 217.985386,38.8385342 217.985386,39.0804234 C217.982318,41.2696743 217.985386,43.4604561 217.985386,45.6497068 C217.985386,45.7430945 218.000729,45.8395439 217.982318,45.9283387 C217.927084,46.2085016 218.135745,46.6876873 217.594146,46.6203257 C217.44839,46.6019544 217.258139,46.1947231 217.2474,45.9589577 C217.20444,45.0296743 217.222851,44.095798 217.221316,43.1649837 C217.218248,41.4181759 217.218248,39.6713681 217.216714,37.9230293 C217.216714,37.6015309 217.216714,37.2800325 217.216714,36.9784365 C217.856507,36.7089902 218.178705,36.9539413 218.484026,37.4254723 C220.027508,39.8106841 221.594004,42.1790554 223.154363,44.5520195 C223.304722,44.7801303 223.475027,44.9959935 223.760403,45.3909772 C223.792622,45.0113029 223.821773,44.8260587 223.821773,44.6408143 C223.824842,42.4041042 223.821773,40.1689251 223.821773,37.932215 C223.821773,37.7224756 223.775745,37.4943649 223.841719,37.3091205 C223.90309,37.1407166 224.090272,37.0167101 224.220685,36.8728013 C224.341894,37.0258958 224.565898,37.1774593 224.5705,37.3336156 C224.601186,38.4971335 224.588912,39.6621824 224.588912,40.8272312 C224.588912,42.4806515 224.591981,44.1356026 224.588912,45.7890228 C224.588912,46.0416286 224.565898,46.2927036 224.553624,46.5713355 L224.555158,46.5698046 Z" id="Path" fill="#47AE4C"></path>
            <path d="M232.47049,46.5774593 L232.47049,36.908013 C232.709837,36.8957655 232.92617,36.8865798 233.260642,36.8697394 L233.260642,41.9601303 C233.322013,41.9830945 233.383384,42.0060587 233.443221,42.0274919 C234.204222,41.2574267 234.965223,40.4904234 235.72469,39.7188273 C236.559336,38.8706841 237.3679,37.9965146 238.237834,37.185114 C238.489456,36.9508795 238.908313,36.8942345 239.248923,36.7564495 C239.294951,36.8284039 239.339445,36.9003583 239.385473,36.9723127 C238.764091,37.6168404 238.147312,38.262899 237.521327,38.9028338 C236.999673,39.4356026 236.482622,39.9744951 235.933351,40.4797068 C235.58507,40.8012052 235.594276,41.0430945 235.885789,41.4135831 C237.226746,43.1114007 238.537018,44.8321824 239.882579,46.5759283 C239.30876,46.7979153 238.952807,46.6448208 238.613733,46.1855374 C237.587301,44.8000325 236.519445,43.4466775 235.463863,42.0826059 C235.324243,41.9019544 235.167748,41.7335505 234.922263,41.442671 C234.391404,42.0060587 233.883558,42.5112704 233.423275,43.0562867 C233.292861,43.210912 233.260642,43.4834202 233.254505,43.7038762 C233.233025,44.4953746 233.222285,45.2884039 233.248367,46.0799023 C233.268313,46.6647231 233.013624,46.7718893 232.47049,46.5759283 L232.47049,46.5774593 Z" id="Path" fill="#47AE4C"></path>
            <path d="M193.189946,36.8957655 L193.920261,36.8957655 L193.920261,41.1609772 L199.816485,41.1609772 C199.816485,40.5899348 199.816485,40.0204234 199.816485,39.452443 C199.816485,38.7772964 199.833363,38.1006189 199.811882,37.4254723 C199.79654,36.8942345 200.026681,36.7748208 200.531458,36.9432247 C200.548335,37.1499023 200.580555,37.3535179 200.580555,37.5586645 C200.582089,40.3557003 200.580555,43.1527361 200.577487,45.948241 C200.577487,45.9941694 200.577487,46.0416286 200.575952,46.087557 C200.569815,46.3692509 200.595898,46.7259609 200.172437,46.6264495 C200.01901,46.5912378 199.834897,46.2850488 199.82876,46.0982736 C199.79654,44.9102606 199.788869,43.7207166 199.818019,42.5327036 C199.830294,42.022899 199.687606,41.8345928 199.14754,41.8468404 C197.628607,41.8789902 196.106605,41.8774593 194.587672,41.8468404 C194.047606,41.8361238 193.911055,42.0397394 193.920261,42.5418893 C193.946343,43.8875896 193.929467,45.2332899 193.929467,46.6157329 L193.185343,46.6157329 L193.185343,36.8972964 L193.189946,36.8957655 Z" id="Path" fill="#47AE4C"></path>
            <path d="M183.25704,37.5831596 C183.25704,38.7405538 183.25704,39.784658 183.25704,40.8287622 C183.25704,42.5740391 183.244766,44.3193159 183.263178,46.0645928 C183.269315,46.6203257 183.071393,46.7902606 182.477628,46.556026 L182.477628,37.5831596 C181.567802,37.5831596 180.73469,37.5770358 179.900043,37.5862215 C179.40754,37.5908143 179.283264,37.3734202 179.467378,36.9034202 L186.264222,36.9034202 C186.43913,37.3489251 186.360882,37.5969381 185.813145,37.5877525 C184.980033,37.573974 184.146921,37.5846906 183.25704,37.5846906 L183.25704,37.5831596 Z" id="Path" fill="#47AE4C"></path>
            <path d="M246.986279,36.9003583 L247.647552,36.9003583 L247.647552,46.5897068 C247.245572,46.6999348 246.903428,46.7841368 246.904962,46.2085016 C246.909564,43.1787622 246.909564,40.1505538 246.914167,37.1208143 C246.914167,37.0565146 246.955593,36.992215 246.986279,36.9018893 L246.986279,36.9003583 Z" id="Path" fill="#47AE4C"></path>
            <path d="M208.792002,36.7901303 C208.94543,36.9524104 209.233873,37.1131596 209.235408,37.2754397 C209.261491,40.3495766 209.255354,43.4252443 209.255354,46.5376548 C208.884058,46.6448208 208.561861,46.7473941 208.561861,46.2115635 C208.555724,43.1374267 208.558792,40.061759 208.558792,36.9860912 L208.793536,36.7901303 L208.792002,36.7901303 Z" id="Path" fill="#47AE4C"></path>
            <path d="M280.105169,14.0311075 L256.086072,14.0311075 C255.401785,9.58830618 260.94666,3.67273616 266.258324,2.97462541 C273.527726,2.01931596 279.617269,7.36078176 280.103634,14.0311075 L280.105169,14.0311075 Z" id="Path"></path>
            <path d="M129.403939,18.303974 C128.449619,18.6132247 127.633384,18.4279805 126.853972,18.0896417 C126.487279,17.9319544 126.034668,17.7237459 126.234124,17.168013 C126.399826,16.7102606 127.15469,16.3229316 127.558205,16.5541042 C127.989336,16.8005863 128.348357,17.1787296 128.716583,17.5231922 C128.949793,17.7405863 129.141578,18.0023779 129.402405,18.303974 L129.403939,18.303974 Z" id="Path"></path>
            <path d="M53.4296409,14.9757003 C53.3544614,21.6919544 47.8157236,27.0992509 41.1017301,27.0135179 C34.4920675,26.9293159 29.0898803,21.3566775 29.1819369,14.7200325 C29.2724592,8.17065146 34.8648966,2.71895766 41.4653536,2.86286645 C48.2683351,3.01136808 53.3452557,8.37732899 53.4296409,14.9757003 Z" id="Path"></path>
        </g>
    </g>
</svg>